<?xml version="1.0" encoding="UTF-8"?>
<svg xmlns="http://www.w3.org/2000/svg" width="512" height="512" viewBox="0 0 512 512" role="img" aria-label="Eye Supremo">
  <defs>
    <linearGradient id="bg" x1="0" y1="0" x2="1" y2="1">
      <stop offset="0%" stop-color="#13263a"/>
      <stop offset="100%" stop-color="#0e2033"/>
    </linearGradient>
    <linearGradient id="iris" x1="0" y1="0" x2="1" y2="1">
      <stop offset="0%" stop-color="#22b8c7"/>
      <stop offset="100%" stop-color="#0f8b8d"/>
    </linearGradient>
  </defs>
  <rect width="512" height="512" rx="96" fill="url(#bg)"/>
  <!-- eye outline -->
  <path d="M64 256c56-88 136-136 192-136s136 48 192 136c-56 88-136 136-192 136S120 344 64 256Z" fill="none" stroke="#22b8c7" stroke-width="28" stroke-linejoin="round"/>
  <!-- iris -->
  <circle cx="256" cy="256" r="78" fill="url(#iris)"/>
  <!-- pupil -->
  <circle cx="256" cy="256" r="34" fill="#0b1b2b"/>
  <!-- highlight -->
  <circle cx="230" cy="232" r="14" fill="#e8fbff" opacity=".9"/>
  <!-- invoice tick accent bottom-right -->
  <path d="M330 348h78v54c0 12-10 22-22 22h-56c-12 0-22-10-22-22v-32c0-12 10-22 22-22Z" fill="#174560"/>
  <path d="M348 372h48M348 392h32" stroke="#22b8c7" stroke-width="10" stroke-linecap="round"/>
</svg>
